<svg width="91" height="26" viewBox="0 0 91 26" fill="none" xmlns="http://www.w3.org/2000/svg">
<path d="M18.7608 1.06928C19.1976 1.06928 19.416 1.23333 19.416 1.56145V1.66691C19.416 1.90128 19.1127 2.24111 18.506 2.6864C17.9236 3.10826 17.5475 3.54184 17.3776 3.98714L11.954 17.1702C11.7841 17.6858 11.4323 17.9436 10.8984 17.9436H9.36961C8.88428 17.9436 8.52028 17.6858 8.27761 17.1702L1.79843 3.98714C1.60429 3.58871 1.27669 3.16686 0.815625 2.72156C0.354557 2.27626 0.124023 1.92471 0.124023 1.66691V1.56145C0.124023 1.23333 0.342423 1.06928 0.779225 1.06928H6.85801C7.27055 1.06928 7.47681 1.24505 7.47681 1.5966V1.70207C7.47681 1.86612 7.35548 2.06533 7.11281 2.2997C6.89441 2.53407 6.71241 2.76843 6.56681 3.0028C6.44548 3.21373 6.45761 3.56528 6.60321 4.05745L11.0804 14.9906L15.3392 4.54962C15.5333 3.84652 15.5333 3.36607 15.3392 3.10826C15.1451 2.82702 14.8781 2.56922 14.5384 2.33486C14.2229 2.07705 14.0652 1.86612 14.0652 1.70207V1.5966C14.0652 1.24505 14.2836 1.06928 14.7204 1.06928H18.7608ZM35.8188 14.7797C35.8673 15.2953 36.0008 15.7054 36.2192 16.0101C36.4618 16.2914 36.6924 16.4671 36.9108 16.5374C37.1534 16.6078 37.3597 16.7015 37.5296 16.8187C37.7237 16.9359 37.8208 17.0882 37.8208 17.2757C37.8208 17.8616 36.838 18.1546 34.8724 18.1546C33.9017 18.1546 33.1858 18.014 32.7248 17.7327C32.288 17.428 32.0332 16.8656 31.9604 16.0453C30.9897 17.5452 29.3032 18.2952 26.9008 18.2952C24.8624 18.2952 23.2122 17.8382 21.9504 16.9242C20.7128 15.9867 20.094 14.6742 20.094 12.9868C20.0697 11.3228 20.6885 10.0338 21.9504 9.11976C23.2122 8.18229 24.8017 7.71356 26.7188 7.71356C28.466 7.71356 29.8734 8.11198 30.9412 8.90883L30.8684 8.20573C30.65 6.04956 30.2617 4.47931 29.7036 3.49497C29.1454 2.51063 28.2597 2.01846 27.0464 2.01846C26.2941 2.01846 25.6632 2.24111 25.1536 2.6864C24.6682 3.1317 24.3285 3.62387 24.1344 4.16291C23.9645 4.67852 23.7097 5.15897 23.37 5.60426C23.0302 6.04956 22.6056 6.27221 22.096 6.27221C21.5621 6.27221 21.1253 6.13159 20.7856 5.85035C20.4701 5.54567 20.3124 5.14725 20.3124 4.65508C20.3124 3.53012 20.9433 2.59266 22.2052 1.84269C23.4913 1.09271 25.105 0.717728 27.0464 0.717728C29.3274 0.717728 31.1717 1.37395 32.5792 2.6864C33.9866 3.97542 34.8238 5.7566 35.0908 8.02995L35.8188 14.7797ZM28.102 16.9593C29.0969 16.9593 29.8977 16.6078 30.5044 15.9047C31.1353 15.2016 31.4265 14.3696 31.378 13.4087L31.2688 12.3189C31.196 11.3111 30.8441 10.5142 30.2132 9.92832C29.5822 9.3424 28.7814 9.04945 27.8108 9.04945C26.7916 9.04945 25.9665 9.36584 25.3356 9.99863C24.7046 10.608 24.3892 11.44 24.3892 12.4946C24.3892 13.7368 24.7289 14.7914 25.4084 15.6586C26.1121 16.5257 27.01 16.9593 28.102 16.9593ZM68.8513 14.9906C68.8756 15.5062 69.094 15.975 69.5065 16.3968C69.9433 16.8187 70.1617 17.1351 70.1617 17.346V17.4866C70.1617 17.8147 69.9069 17.9788 69.3973 17.9788H64.0465C63.5369 17.9788 63.2821 17.8147 63.2821 17.4866V17.346C63.2821 17.1351 63.5005 16.8304 63.9373 16.432C64.3741 16.0101 64.5804 15.5414 64.5561 15.0258L64.1921 8.3815C64.0951 6.27221 63.7189 4.74883 63.0637 3.81136C62.4328 2.8739 61.5228 2.40516 60.3337 2.40516C59.3388 2.40516 58.4895 2.80359 57.7857 3.60043C57.1063 4.37384 56.7423 5.35818 56.6937 6.55345C56.7908 7.02218 56.8393 7.58466 56.8393 8.24088V15.0258C56.8393 15.5414 57.0456 16.0101 57.4581 16.432C57.8949 16.8304 58.1133 17.1351 58.1133 17.346V17.4866C58.1133 17.8147 57.8585 17.9788 57.3489 17.9788H52.0709C51.5371 17.9788 51.2701 17.8147 51.2701 17.4866V17.346C51.2701 17.1351 51.4764 16.8304 51.8889 16.432C52.3257 16.0101 52.5441 15.5414 52.5441 15.0258V7.9948C52.5441 6.23705 52.1801 4.86601 51.4521 3.88167C50.7484 2.89733 49.8384 2.40516 48.7221 2.40516C47.6301 2.40516 46.7323 2.80359 46.0285 3.60043C45.3248 4.37384 44.9487 5.3699 44.9001 6.5886L44.9365 15.0258C44.9365 15.5414 45.1792 16.0101 45.6645 16.432C46.1499 16.8304 46.3925 17.1351 46.3925 17.346V17.4866C46.3925 17.8147 46.1377 17.9788 45.6281 17.9788H39.9861C39.4523 17.9788 39.1853 17.8147 39.1853 17.4866V17.346C39.1853 17.1351 39.428 16.8304 39.9133 16.432C40.3987 16.0101 40.6413 15.5414 40.6413 15.0258V5.60426C40.6413 5.1824 40.5079 4.83085 40.2409 4.54962C39.974 4.26838 39.7071 4.03401 39.4401 3.84652C39.1732 3.65902 39.0397 3.45981 39.0397 3.24888V3.14342C39.0397 2.90905 39.2581 2.69812 39.6949 2.51063L43.4077 0.858348C43.796 0.694292 44.0872 0.682573 44.2813 0.823193C44.4755 0.940376 44.5725 1.16302 44.5725 1.49114V3.56528C45.1064 2.69812 45.8223 2.00674 46.7201 1.49114C47.6423 0.975531 48.6615 0.717728 49.7777 0.717728C51.1124 0.717728 52.3136 1.0224 53.3813 1.63176C54.4733 2.24111 55.3227 3.09654 55.9293 4.19807C56.3904 3.09654 57.1306 2.24111 58.1497 1.63176C59.1689 1.0224 60.3216 0.717728 61.6077 0.717728C63.5005 0.717728 65.0536 1.3388 66.2669 2.58094C67.5045 3.79964 68.2204 5.76832 68.4145 8.48697L68.8513 14.9906ZM82.4001 0.717728C84.7054 0.717728 86.6832 1.50286 88.3333 3.07311C90.0077 4.61993 90.8449 6.67063 90.8449 9.22522C90.8449 11.8501 90.0198 14.018 88.3697 15.7289C86.7438 17.4398 84.7661 18.2952 82.4365 18.2952C80.4709 18.2952 78.8693 17.6741 77.6317 16.432V22.795C77.6317 23.3106 77.8744 23.7676 78.3597 24.1661C78.8693 24.5879 79.1241 24.9043 79.1241 25.1152V25.2207C79.1241 25.5723 78.8572 25.748 78.3233 25.748H72.7905C72.2566 25.748 71.9897 25.5723 71.9897 25.2207V25.1152C71.9897 24.9043 72.2202 24.5879 72.6813 24.1661C73.1424 23.7676 73.3729 23.3106 73.3729 22.795V5.56911C73.3729 5.07694 73.106 4.64336 72.5721 4.26838C72.0625 3.89339 71.8077 3.58871 71.8077 3.35435V3.21373C71.8077 2.90905 72.0261 2.66297 72.4629 2.47547L75.8117 0.893503C76.6125 0.495081 77.0129 0.682574 77.0129 1.45598L76.9765 3.3895C77.4861 2.54578 78.2141 1.88956 79.1605 1.42083C80.1069 0.952095 81.1868 0.717728 82.4001 0.717728ZM81.9269 16.9593C83.3829 16.9593 84.5113 16.3968 85.3121 15.2719C86.1372 14.1469 86.5497 12.5649 86.5497 10.526C86.5497 7.9948 86.0644 5.95581 85.0937 4.409C84.1473 2.83874 82.8976 2.05362 81.3445 2.05362C80.4224 2.05362 79.5973 2.38173 78.8693 3.03795C78.1656 3.67074 77.753 4.47931 77.6317 5.46364V11.9673C77.6317 13.2563 78.0685 14.4164 78.9421 15.4476C79.8157 16.4554 80.8106 16.9593 81.9269 16.9593Z" fill="#050505"/>
</svg>
